<?xml version="1.0" standalone="no"?>
<!DOCTYPE svg PUBLIC "-//W3C//DTD SVG 20010904//EN"
 "http://www.w3.org/TR/2001/REC-SVG-20010904/DTD/svg10.dtd">
<svg version="1.0" xmlns="http://www.w3.org/2000/svg"
 width="700.000000pt" height="700.000000pt" viewBox="0 0 700.000000 700.000000"
 preserveAspectRatio="xMidYMid meet">
<metadata>
Created by potrace 1.14, written by Peter Selinger 2001-2017
</metadata>
<g transform="translate(0.000000,700.000000) scale(0.100000,-0.100000)"
fill="#000000" stroke="none">
<path d="M2590 6109 c-599 -57 -1163 -324 -1596 -754 -408 -406 -666 -927
-750 -1520 -24 -164 -24 -495 0 -665 66 -486 256 -934 556 -1310 350 -440 852
-762 1403 -901 240 -60 339 -71 725 -76 l352 -5 0 2621 0 2621 -302 -1 c-167
-1 -341 -5 -388 -10z m-525 -1984 c171 -57 302 -170 380 -328 100 -202 100
-392 0 -594 -78 -157 -207 -269 -380 -329 -71 -25 -94 -28 -205 -28 -111 0
-134 3 -205 28 -205 71 -356 221 -422 419 -24 72 -27 98 -27 207 0 109 3 135
27 206 74 224 255 385 492 440 93 21 242 12 340 -21z"/>
<path d="M3720 3500 l0 -2620 308 0 c335 0 472 11 683 56 294 61 641 209 900
382 629 421 1038 1074 1145 1827 14 96 19 190 19 355 0 165 -5 259 -19 355
-142 1003 -829 1824 -1786 2139 -297 98 -509 126 -942 126 l-308 0 0 -2620z"/>
</g>
</svg>
